<svg xmlns="http://www.w3.org/2000/svg" viewBox="0 0 240 240" width="240" height="240" role="img"><defs><filter id="soft" x="-60%" y="-60%" width="220%" height="220%"><feGaussianBlur stdDeviation="9"/></filter><radialGradient id="ground" cx="50%" cy="62%" r="72%"><stop offset="0%" stop-color="#fbfdfa"/><stop offset="100%" stop-color="#d9e6d2"/></radialGradient></defs><rect width="240" height="240" fill="#d9e6d2"/><g filter="url(#soft)" opacity="0.26"><polygon points="185.6,199.4 168.7,166.5 110.4,156.1 58.5,173.8 60.2,208.9 129.8,224.9 185.6,199.4" fill="#2c3d2a" stroke="#2c3d2a" stroke-width="0.7"/></g><polygon points="115.0,164.6 87.4,133.7 141.5,131.0" fill="#633c26" stroke="#633c26" stroke-width="0.7"/><polygon points="158.5,172.4 115.0,164.6 141.5,131.0" fill="#683e27" stroke="#683e27" stroke-width="0.7"/><polygon points="141.5,131.0 87.4,133.7 113.2,95.6" fill="#673e27" stroke="#673e27" stroke-width="0.7"/><polygon points="115.0,164.6 76.2,177.9 87.4,133.7" fill="#683e27" stroke="#683e27" stroke-width="0.7"/><polygon points="141.5,131.0 113.2,95.6 169.9,101.7" fill="#623c25" stroke="#623c25" stroke-width="0.7"/><polygon points="169.9,101.7 113.2,95.6 143.6,61.5" fill="#663d26" stroke="#663d26" stroke-width="0.7"/><polygon points="87.4,133.7 61.7,106.0 113.2,95.6" fill="#623c25" stroke="#623c25" stroke-width="0.7"/><polygon points="113.2,95.6 83.8,62.9 143.6,61.5" fill="#603b25" stroke="#603b25" stroke-width="0.7"/><polygon points="158.5,172.4 141.5,131.0 181.4,148.0" fill="#633c26" stroke="#633c26" stroke-width="0.7"/><polygon points="181.4,148.0 141.5,131.0 169.9,101.7" fill="#673e27" stroke="#673e27" stroke-width="0.7"/><polygon points="113.2,95.6 61.7,106.0 83.8,62.9" fill="#663d26" stroke="#663d26" stroke-width="0.7"/><polygon points="143.6,61.5 83.8,62.9 113.6,24.0" fill="#643c26" stroke="#643c26" stroke-width="0.7"/><polygon points="76.2,177.9 58.4,155.0 87.4,133.7" fill="#633c26" stroke="#633c26" stroke-width="0.7"/><polygon points="87.4,133.7 58.4,155.0 61.7,106.0" fill="#673e27" stroke="#673e27" stroke-width="0.7"/><polygon points="143.6,61.5 113.6,24.0 167.0,25.7" fill="#5e3a25" stroke="#5e3a25" stroke-width="0.7"/><polygon points="171.0,197.0 158.5,172.4 181.4,148.0" fill="#683e27" stroke="#683e27" stroke-width="0.7"/><polygon points="169.9,101.7 143.6,61.5 188.4,70.8" fill="#603b25" stroke="#603b25" stroke-width="0.7"/><polygon points="83.8,62.9 65.4,26.9 113.6,24.0" fill="#5e3a25" stroke="#5e3a25" stroke-width="0.7"/><polygon points="188.4,70.8 143.6,61.5 167.0,25.7" fill="#643c26" stroke="#643c26" stroke-width="0.7"/><polygon points="61.7,106.0 50.7,74.7 83.8,62.9" fill="#603b25" stroke="#603b25" stroke-width="0.7"/><polygon points="181.4,148.0 169.9,101.7 189.3,121.9" fill="#623c25" stroke="#623c25" stroke-width="0.7"/><polygon points="189.3,121.9 169.9,101.7 188.4,70.8" fill="#663d26" stroke="#663d26" stroke-width="0.7"/><polygon points="83.8,62.9 50.7,74.7 65.4,26.9" fill="#643c26" stroke="#643c26" stroke-width="0.7"/><polygon points="188.4,70.8 167.0,25.7 184.5,31.2" fill="#5e3a25" stroke="#5e3a25" stroke-width="0.7"/><g transform="translate(0,4.2)"><polygon points="114.1,24.3 69.2,27.0 69.0,32.5 131.1,35.2 180.0,31.0 163.8,25.9 114.1,24.3" fill="#3a2f24" stroke="#3a2f24" stroke-width="0.7"/></g><polygon points="76.2,177.9 77.5,204.0 58.4,155.0" fill="#a55735" stroke="#a55735" stroke-width="0.7"/><polygon points="171.0,197.0 181.4,148.0 165.0,174.2" fill="#995232" stroke="#995232" stroke-width="0.7"/><polygon points="58.4,155.0 60.7,128.0 61.7,106.0" fill="#cc7957" stroke="#cc7957" stroke-width="0.7"/><polygon points="61.7,106.0 60.7,128.0 50.7,74.7" fill="#be613b" stroke="#be613b" stroke-width="0.7"/><polygon points="165.0,174.2 181.4,148.0 189.3,121.9" fill="#924f31" stroke="#924f31" stroke-width="0.7"/><polygon points="77.5,204.0 94.0,179.0 58.4,155.0" fill="#d2896c" stroke="#d2896c" stroke-width="0.7"/><polygon points="129.4,216.0 171.0,197.0 165.0,174.2" fill="#894b2e" stroke="#894b2e" stroke-width="0.7"/><polygon points="77.5,204.0 129.4,216.0 94.0,179.0" fill="#c2623c" stroke="#c2623c" stroke-width="0.7"/><polygon points="58.4,155.0 94.0,179.0 60.7,128.0" fill="#c86d48" stroke="#c86d48" stroke-width="0.7"/><polygon points="50.7,74.7 65.1,32.8 65.4,26.9" fill="#d2886a" stroke="#d2886a" stroke-width="0.7"/><polygon points="189.3,121.9 188.4,70.8 171.1,85.7" fill="#9d5333" stroke="#9d5333" stroke-width="0.7"/><polygon points="129.4,216.0 165.0,174.2 94.0,179.0" fill="#cb7755" stroke="#cb7755" stroke-width="0.7"/><polygon points="171.1,85.7 188.4,70.8 184.5,31.2" fill="#995232" stroke="#995232" stroke-width="0.7"/><polygon points="165.0,174.2 189.3,121.9 132.8,138.8" fill="#bd603a" stroke="#bd603a" stroke-width="0.7"/><polygon points="60.7,128.0 90.0,88.4 50.7,74.7" fill="#da9d85" stroke="#da9d85" stroke-width="0.7"/><polygon points="94.0,179.0 165.0,174.2 132.8,138.8" fill="#ba5f3a" stroke="#ba5f3a" stroke-width="0.7"/><polygon points="94.0,179.0 132.8,138.8 60.7,128.0" fill="#d99b83" stroke="#d99b83" stroke-width="0.7"/><polygon points="132.8,138.8 189.3,121.9 171.1,85.7" fill="#9d5433" stroke="#9d5433" stroke-width="0.7"/><polygon points="50.7,74.7 90.0,88.4 65.1,32.8" fill="#d2886b" stroke="#d2886b" stroke-width="0.7"/><polygon points="60.7,128.0 132.8,138.8 90.0,88.4" fill="#cc7957" stroke="#cc7957" stroke-width="0.7"/><polygon points="171.1,85.7 184.5,31.2 131.9,35.7" fill="#c96f4b" stroke="#c96f4b" stroke-width="0.7"/><polygon points="132.8,138.8 171.1,85.7 90.0,88.4" fill="#d48e72" stroke="#d48e72" stroke-width="0.7"/><polygon points="90.0,88.4 131.9,35.7 65.1,32.8" fill="#e7bfaf" stroke="#e7bfaf" stroke-width="0.7"/><polygon points="90.0,88.4 171.1,85.7 131.9,35.7" fill="#cb7653" stroke="#cb7653" stroke-width="0.7"/><polyline points="113.6,24.0 65.4,26.9 65.1,32.8 131.9,35.7 184.5,31.2 167.0,25.7 113.6,24.0" fill="none" stroke="#e4b9a7" stroke-width="1.1" stroke-linejoin="round"/></svg>