<svg xmlns="http://www.w3.org/2000/svg" viewBox="0 0 600 600" width="600" height="600" role="img"><defs><filter id="soft" x="-60%" y="-60%" width="220%" height="220%"><feGaussianBlur stdDeviation="9"/></filter><radialGradient id="ground" cx="50%" cy="62%" r="72%"><stop offset="0%" stop-color="#fbfdfa"/><stop offset="100%" stop-color="#d9e6d2"/></radialGradient></defs><rect width="600" height="600" fill="url(#ground)"/><g filter="url(#soft)" opacity="0.26"><polygon points="566.8,457.1 473.7,345.1 246.3,315.1 42.9,374.8 41.0,501.8 346.8,561.2 566.8,457.1" fill="#2c3d2a" stroke="#2c3d2a" stroke-width="0.7"/></g><polygon points="436.3,366.7 266.6,344.4 358.5,198.5" fill="#6f6e5a" stroke="#6f6e5a" stroke-width="0.7"/><polygon points="266.6,344.4 175.9,205.4 358.5,198.5" fill="#6b6a56" stroke="#6b6a56" stroke-width="0.7"/><polygon points="266.6,344.4 114.8,388.9 175.9,205.4" fill="#6f6e5a" stroke="#6f6e5a" stroke-width="0.7"/><polygon points="358.5,198.5 175.9,205.4 264.2,101.2" fill="#716f5b" stroke="#716f5b" stroke-width="0.7"/><polygon points="358.5,198.5 264.2,101.2 448.2,109.0" fill="#696955" stroke="#696955" stroke-width="0.7"/><polygon points="436.3,366.7 358.5,198.5 504.3,232.8" fill="#6b6a56" stroke="#6b6a56" stroke-width="0.7"/><polygon points="175.9,205.4 98.4,116.7 264.2,101.2" fill="#696955" stroke="#696955" stroke-width="0.7"/><polygon points="504.3,232.8 358.5,198.5 448.2,109.0" fill="#716f5b" stroke="#716f5b" stroke-width="0.7"/><polygon points="114.8,388.9 72.0,252.3 175.9,205.4" fill="#6b6a56" stroke="#6b6a56" stroke-width="0.7"/><polygon points="505.8,450.3 436.3,366.7 504.3,232.8" fill="#6f6e5a" stroke="#6f6e5a" stroke-width="0.7"/><polygon points="175.9,205.4 72.0,252.3 98.4,116.7" fill="#716f5b" stroke="#716f5b" stroke-width="0.7"/><polygon points="504.3,232.8 448.2,109.0 528.0,138.5" fill="#696955" stroke="#696955" stroke-width="0.7"/><g transform="translate(0,9.4)"><polygon points="439.1,110.2 268.0,103.1 113.8,117.4 108.2,149.0 345.3,164.2 513.3,137.7 439.1,110.2" fill="#3a2f24" stroke="#3a2f24" stroke-width="0.7"/></g><polygon points="114.8,388.9 113.4,483.7 72.0,252.3" fill="#d9c9a8" stroke="#d9c9a8" stroke-width="0.7"/><polygon points="505.8,450.3 504.3,232.8 465.9,293.7" fill="#ada387" stroke="#ada387" stroke-width="0.7"/><polygon points="72.0,252.3 92.5,150.6 98.4,116.7" fill="#e1d5bb" stroke="#e1d5bb" stroke-width="0.7"/><polygon points="465.9,293.7 504.3,232.8 528.0,138.5" fill="#a39b80" stroke="#a39b80" stroke-width="0.7"/><polygon points="113.4,483.7 201.9,308.5 72.0,252.3" fill="#e6dbc6" stroke="#e6dbc6" stroke-width="0.7"/><polygon points="341.6,528.0 505.8,450.3 465.9,293.7" fill="#aea488" stroke="#aea488" stroke-width="0.7"/><polygon points="72.0,252.3 201.9,308.5 92.5,150.6" fill="#ddcfb1" stroke="#ddcfb1" stroke-width="0.7"/><polygon points="113.4,483.7 341.6,528.0 201.9,308.5" fill="#dfd1b5" stroke="#dfd1b5" stroke-width="0.7"/><polygon points="465.9,293.7 528.0,138.5 347.3,167.0" fill="#d9c9a9" stroke="#d9c9a9" stroke-width="0.7"/><polygon points="341.6,528.0 465.9,293.7 201.9,308.5" fill="#e1d5bb" stroke="#e1d5bb" stroke-width="0.7"/><polygon points="201.9,308.5 465.9,293.7 347.3,167.0" fill="#d3c3a3" stroke="#d3c3a3" stroke-width="0.7"/><polygon points="201.9,308.5 347.3,167.0 92.5,150.6" fill="#ece4d3" stroke="#ece4d3" stroke-width="0.7"/><polyline points="448.2,109.0 264.2,101.2 98.4,116.7 92.5,150.6 347.3,167.0 528.0,138.5 448.2,109.0" fill="none" stroke="#eee7d8" stroke-width="1.1" stroke-linejoin="round"/></svg>