<svg xmlns="http://www.w3.org/2000/svg" viewBox="0 0 600 600" width="600" height="600" role="img"><defs><filter id="soft" x="-60%" y="-60%" width="220%" height="220%"><feGaussianBlur stdDeviation="9"/></filter><radialGradient id="ground" cx="50%" cy="62%" r="72%"><stop offset="0%" stop-color="#fbfdfa"/><stop offset="100%" stop-color="#d9e6d2"/></radialGradient></defs><rect width="600" height="600" fill="url(#ground)"/><g filter="url(#soft)" opacity="0.26"><polygon points="483.6,449.7 235.6,379.5 96.7,458.6 364.9,551.8 483.6,449.7" fill="#2c3d2a" stroke="#2c3d2a" stroke-width="0.7"/></g><polygon points="260.3,399.4 156.6,458.4 246.1,72.0" fill="#163125" stroke="#163125" stroke-width="0.7"/><polygon points="260.3,399.4 246.1,72.0 502.5,87.4" fill="#163125" stroke="#163125" stroke-width="0.7"/><polygon points="445.4,451.8 260.3,399.4 502.5,87.4" fill="#163125" stroke="#163125" stroke-width="0.7"/><polygon points="156.6,458.4 97.5,89.5 246.1,72.0" fill="#163125" stroke="#163125" stroke-width="0.7"/><g transform="translate(0,10.0)"><polygon points="491.6,87.5 253.1,73.2 114.9,89.5 381.2,110.8 491.6,87.5" fill="#3a2f24" stroke="#3a2f24" stroke-width="0.7"/></g><polygon points="156.6,458.4 356.7,528.0 97.5,89.5" fill="#547569" stroke="#547569" stroke-width="0.7"/><polygon points="445.4,451.8 502.5,87.4 383.9,112.4" fill="#1b3e30" stroke="#1b3e30" stroke-width="0.7"/><polygon points="356.7,528.0 445.4,451.8 383.9,112.4" fill="#1b3e30" stroke="#1b3e30" stroke-width="0.7"/><polygon points="356.7,528.0 383.9,112.4 97.5,89.5" fill="#547569" stroke="#547569" stroke-width="0.7"/><polyline points="502.5,87.4 246.1,72.0 97.5,89.5 383.9,112.4 502.5,87.4" fill="none" stroke="#9aaea6" stroke-width="1.1" stroke-linejoin="round"/></svg>